<svg xmlns="http://www.w3.org/2000/svg" xmlns:xlink="http://www.w3.org/1999/xlink" enable-background="new 0 0 192 192" height="192" viewBox="0 0 192 192" width="192"><rect fill="none" height="192" width="192"/><g><g><path d="M172,28H20v121.63c0,5.72,4.64,10.37,10.37,10.37h131.27c5.72,0,10.37-4.64,10.37-10.37V28z" fill="#F1F3F4"/><path d="M172,28H20v121.63c0,5.72,4.64,10.37,10.37,10.37h131.27c5.72,0,10.37-4.64,10.37-10.37V28z" fill="#F1F3F4"/><rect fill="#E8EAED" height="66.35" width="152" x="20" y="28"/><path d="M113.27,56.34H78.73c-3.82,0-6.91-3.09-6.91-6.91v0c0-3.82,3.09-6.91,6.91-6.91h34.54 c3.82,0,6.91,3.09,6.91,6.91v0C120.18,53.24,117.09,56.34,113.27,56.34z" fill="#FFFFFF"/><g><defs><path d="M172,28H20v121.63c0,5.72,4.64,10.37,10.37,10.37h131.27c5.72,0,10.37-4.64,10.37-10.37V28z" id="SVGID_1_"/></defs><clipPath id="SVGID_00000178915864409422588530000016842158152988174262_"><use overflow="visible" xlink:href="#SVGID_1_"/></clipPath><g clip-path="url(#SVGID_00000178915864409422588530000016842158152988174262_)"><linearGradient gradientUnits="userSpaceOnUse" id="SVGID_00000177461146999454091140000016613196956783422890_" x1="39.1607" x2="152.8409" y1="125.0126" y2="125.0126"><stop offset="0" style="stop-color:#D93025"/><stop offset="1" style="stop-color:#EA4335"/></linearGradient><path d="M39.16,116.8l9.05,27.61l19.38,21.63 L96,116.81l56.84-0.01C141.49,97.18,120.29,83.99,96,83.99C71.71,83.99,50.51,97.18,39.16,116.8z" fill="url(#SVGID_00000177461146999454091140000016613196956783422890_)"/><linearGradient gradientTransform="matrix(-0.5 -0.866 0.866 -0.5 69.4596 226.1023)" gradientUnits="userSpaceOnUse" id="SVGID_00000035523879591732371280000008634062687178386367_" x1="-3.8969" x2="109.8063" y1="36.6081" y2="36.6081"><stop offset="0" style="stop-color:#1E8E3E"/><stop offset="1" style="stop-color:#34A853"/></linearGradient><path d="M95.99,215.28l19.38-21.64l9.04-27.6l-56.83,0 L39.16,116.8c-11.31,19.64-12.14,44.61,0.01,65.65C51.31,203.49,73.34,215.26,95.99,215.28z" fill="url(#SVGID_00000035523879591732371280000008634062687178386367_)"/><linearGradient gradientTransform="matrix(-0.5 0.866 -0.866 -0.5 199.0992 37.05)" gradientUnits="userSpaceOnUse" id="SVGID_00000114031931547502298600000006836093917804276399_" x1="96.7911" x2="210.4944" y1="8.3873" y2="8.3873"><stop offset="0" style="stop-color:#FBBC04"/><stop offset="1" style="stop-color:#FCC934"/></linearGradient><path d="M152.84,116.81l-56.84,0l28.42,49.23 L96,215.28c22.66-0.02,44.69-11.79,56.83-32.83C164.98,161.41,164.15,136.45,152.84,116.81z" fill="url(#SVGID_00000114031931547502298600000006836093917804276399_)"/><ellipse cx="96" cy="149.63" fill="#F1F3F4" rx="32.81" ry="32.82"/><ellipse cx="96" cy="149.63" fill="#1A73E8" rx="26.66" ry="26.67"/></g></g><rect fill="#BDC1C6" height=".86" opacity=".1" width="152" x="20" y="94.35"/><rect fill="#BDC1C6" height=".86" opacity=".1" width="152" x="20" y="93.48"/></g></g></svg>