<?xml version="1.0" standalone="no"?><!DOCTYPE svg PUBLIC "-//W3C//DTD SVG 1.1//EN" "http://www.w3.org/Graphics/SVG/1.1/DTD/svg11.dtd"><svg t="1692951708524" class="icon" viewBox="0 0 1024 1024" version="1.1" xmlns="http://www.w3.org/2000/svg" p-id="2295" xmlns:xlink="http://www.w3.org/1999/xlink" width="200" height="200"><path d="M244.184615 573.44l373.444923-373.523692L777.767385 359.975385 404.243692 733.499077 244.184615 573.361231z m640.236308-320.196923a75.145846 75.145846 0 0 0 0-106.811077l-53.326769-53.326769a75.145846 75.145846 0 0 0-106.811077 0l-53.326769 53.326769 159.980307 160.059077 53.563077-53.248z m-539.569231 539.411692h5.986462L184.871385 626.688v5.986462a95.310769 95.310769 0 0 0-17.801847 53.326769l-59.31323 183.768615 183.768615-59.313231c17.880615 0.078769 35.603692-5.828923 53.405539-17.801846z m624.482462 126.030769H102.557538a39.227077 39.227077 0 1 0 0 78.454154h866.776616a39.227077 39.227077 0 1 0 0-78.454154z" fill="#647BF0" p-id="2296"></path></svg>